<?xml version="1.0" encoding="UTF-8" standalone="no"?>
<!-- Created with Inkscape (http://www.inkscape.org/) -->

<svg
   xmlns:dc="http://purl.org/dc/elements/1.1/"
   xmlns:cc="http://creativecommons.org/ns#"
   xmlns:rdf="http://www.w3.org/1999/02/22-rdf-syntax-ns#"
   xmlns:svg="http://www.w3.org/2000/svg"
   xmlns="http://www.w3.org/2000/svg"
   xmlns:sodipodi="http://sodipodi.sourceforge.net/DTD/sodipodi-0.dtd"
   xmlns:inkscape="http://www.inkscape.org/namespaces/inkscape"
   width="1.4675555mm"
   height="1.3828889mm"
   viewBox="0 0 5.1999999 4.9"
   id="svg4771"
   version="1.1"
   inkscape:version="0.91 r13725"
   sodipodi:docname="linkedin_blue.svg">
  <defs
     id="defs4773" />
  <sodipodi:namedview
     id="base"
     pagecolor="#ffffff"
     bordercolor="#666666"
     borderopacity="1.0"
     inkscape:pageopacity="0.0"
     inkscape:pageshadow="2"
     inkscape:zoom="22.4"
     inkscape:cx="2.5999974"
     inkscape:cy="2.4500041"
     inkscape:document-units="px"
     inkscape:current-layer="layer1"
     showgrid="false"
     inkscape:window-width="1176"
     inkscape:window-height="807"
     inkscape:window-x="985"
     inkscape:window-y="300"
     inkscape:window-maximized="0"
     fit-margin-top="0"
     fit-margin-left="0"
     fit-margin-right="0"
     fit-margin-bottom="0" />
  <metadata
     id="metadata4776">
    <rdf:RDF>
      <cc:Work
         rdf:about="">
        <dc:format>image/svg+xml</dc:format>
        <dc:type
           rdf:resource="http://purl.org/dc/dcmitype/StillImage" />
        <dc:title></dc:title>
      </cc:Work>
    </rdf:RDF>
  </metadata>
  <g
     inkscape:label="Layer 1"
     inkscape:groupmode="layer"
     id="layer1"
     transform="translate(-222.06212,-290.67744)">
    <g
       transform="translate(211.06212,289.07744)"
       id="g11">
      <path
         style="fill:#007bc6"
         inkscape:connector-curvature="0"
         d="m 11.6,1.6 c -0.4,0 -0.6,0.2 -0.6,0.6 0,0.3 0.2,0.6 0.6,0.6 l 0,0 C 12,2.8 12.2,2.5 12.2,2.2 12.3,1.8 12,1.6 11.6,1.6 Z"
         id="path13" />
      <rect
         style="fill:#007bc6"
         x="11.1"
         y="3.2"
         width="1.1"
         height="3.3"
         id="rect15" />
      <path
         style="fill:#007bc6"
         inkscape:connector-curvature="0"
         d="m 14.9,3.1 c -0.6,0 -0.8,0.3 -1,0.5 l 0,-0.4 -1.1,0 c 0,0 0,0.3 0,3.3 l 1.1,0 0,-1.9 c 0,-0.1 0,-0.2 0,-0.3 0.1,-0.2 0.3,-0.4 0.6,-0.4 0.4,0 0.6,0.3 0.6,0.7 l 0,1.8 1.1,0 0,-1.8 c 0,-1.1 -0.6,-1.5 -1.3,-1.5 z"
         id="path17" />
    </g>
  </g>
</svg>
