<?xml version="1.0" encoding="UTF-8" standalone="no"?>
<!-- Created with Inkscape (http://www.inkscape.org/) -->

<svg
   xmlns:dc="http://purl.org/dc/elements/1.1/"
   xmlns:cc="http://creativecommons.org/ns#"
   xmlns:rdf="http://www.w3.org/1999/02/22-rdf-syntax-ns#"
   xmlns:svg="http://www.w3.org/2000/svg"
   xmlns="http://www.w3.org/2000/svg"
   xmlns:sodipodi="http://sodipodi.sourceforge.net/DTD/sodipodi-0.dtd"
   xmlns:inkscape="http://www.inkscape.org/namespaces/inkscape"
   width="1.6368889mm"
   height="1.2417778mm"
   viewBox="0 0 5.7999999 4.3999999"
   id="svg4771"
   version="1.1"
   inkscape:version="0.91 r13725"
   sodipodi:docname="icon_youtube.svg">
  <defs
     id="defs4773" />
  <sodipodi:namedview
     id="base"
     pagecolor="#ffffff"
     bordercolor="#666666"
     borderopacity="1.0"
     inkscape:pageopacity="0.0"
     inkscape:pageshadow="2"
     inkscape:zoom="31.678384"
     inkscape:cx="3.1327942"
     inkscape:cy="1.186038"
     inkscape:document-units="px"
     inkscape:current-layer="layer1"
     showgrid="false"
     inkscape:window-width="1176"
     inkscape:window-height="807"
     inkscape:window-x="985"
     inkscape:window-y="300"
     inkscape:window-maximized="0"
     fit-margin-top="0"
     fit-margin-left="0"
     fit-margin-right="0"
     fit-margin-bottom="0" />
  <metadata
     id="metadata4776">
    <rdf:RDF>
      <cc:Work
         rdf:about="">
        <dc:format>image/svg+xml</dc:format>
        <dc:type
           rdf:resource="http://purl.org/dc/dcmitype/StillImage" />
        <dc:title />
      </cc:Work>
    </rdf:RDF>
  </metadata>
  <g
     inkscape:label="Layer 1"
     inkscape:groupmode="layer"
     id="layer1"
     transform="translate(-216.34962,-286.7703)">
    <g
       transform="matrix(0.91883117,0,0,0.91883117,200.22981,285.01412)"
       id="g19">
      <path
         style="fill:#007bc6"
         inkscape:connector-curvature="0"
         d="M 23.5,6 C 23.4,6.3 23.2,6.6 22.9,6.6 22.2,6.7 21.4,6.7 20.7,6.7 20,6.7 19.2,6.7 18.5,6.6 18.2,6.6 17.9,6.3 17.9,6 17.8,5.5 17.8,5 17.8,4.5 17.8,4 17.8,3.5 17.9,3 18,2.7 18.2,2.4 18.5,2.4 19.2,2.3 20,2.3 20.7,2.3 c 0.7,0 1.5,0 2.2,0.1 0.3,0 0.6,0.3 0.6,0.6 0.1,0.5 0.1,1 0.1,1.5 0,0.5 0,1 -0.1,1.5 z M 21.8,4.3 20.1,3.2 c -0.1,0 -0.2,0 -0.2,0 -0.1,0 -0.1,0.1 -0.1,0.2 l 0,2.1 c 0,0.1 0,0.2 0.1,0.2 0,0 0.1,0 0.1,0 0,0 0.1,0 0.1,0 l 1.7,-1.1 c 0.1,0 0.1,-0.1 0.1,-0.2 0,-0.1 0,0 -0.1,-0.1 z"
         id="path21" />
    </g>
  </g>
</svg>
